HIERARCHY
ROOT Hips
{
 OFFSET 0.000000 0.000000 0.000000
 CHANNELS 6 Xposition Yposition Zposition Yrotation Xrotation Zrotation
 JOINT Chest
 {
  OFFSET 0.000000 9.585900 0.002600
  CHANNELS 3 Yrotation Xrotation Zrotation
  JOINT Chest2
  {
   OFFSET 0.000000 9.601200 -0.005300
   CHANNELS 3 Yrotation Xrotation Zrotation
   JOINT Chest3
   {
    OFFSET 0.000000 9.561800 0.000000
    CHANNELS 3 Yrotation Xrotation Zrotation
    JOINT Chest4
    {
     OFFSET 0.000000 9.552100 0.000000
     CHANNELS 3 Yrotation Xrotation Zrotation
     JOINT Neck
     {
      OFFSET 0.000000 14.453000 0.000000
      CHANNELS 3 Yrotation Xrotation Zrotation
      JOINT Head
      {
       OFFSET 0.000000 8.936500 -0.011300
       CHANNELS 3 Yrotation Xrotation Zrotation
       End Site
       {
        OFFSET 0.000000 17.073600 -0.006000
       }
      }
     }
     JOINT RightCollar
     {
      OFFSET -2.921100 9.558500 0.000000
      CHANNELS 3 Yrotation Xrotation Zrotation
      JOINT RightShoulder
      {
       OFFSET -13.519700 0.000000 0.000000
       CHANNELS 3 Yrotation Xrotation Zrotation
       JOINT RightElbow
       {
        OFFSET 0.000000 -29.696600 0.000000
        CHANNELS 3 Yrotation Xrotation Zrotation
        JOINT RightWrist
        {
         OFFSET 0.000000 -24.004700 0.000000
         CHANNELS 3 Yrotation Xrotation Zrotation
         End Site
         {
          OFFSET 0.000000 -17.728500 0.000000
         }
        }
       }
      }
     }
     JOINT LeftCollar
     {
      OFFSET 2.921100 9.558500 0.000000
      CHANNELS 3 Yrotation Xrotation Zrotation
      JOINT LeftShoulder
      {
       OFFSET 13.519700 0.000000 0.000000
       CHANNELS 3 Yrotation Xrotation Zrotation
       JOINT LeftElbow
       {
        OFFSET 0.000000 -29.696600 0.000000
        CHANNELS 3 Yrotation Xrotation Zrotation
        JOINT LeftWrist
        {
         OFFSET 0.000000 -24.004700 0.000000
         CHANNELS 3 Yrotation Xrotation Zrotation
         End Site
         {
          OFFSET 0.000000 -17.728500 0.000000
         }
        }
       }
      }
     }
    }
   }
  }
 }
 JOINT RightHip
 {
  OFFSET -7.771700 -0.012900 -0.001300
  CHANNELS 3 Yrotation Xrotation Zrotation
  JOINT RightKnee
  {
   OFFSET 0.000000 -40.869800 0.001200
   CHANNELS 3 Yrotation Xrotation Zrotation
   JOINT RightAnkle
   {
    OFFSET 0.000000 -39.717900 0.002100
    CHANNELS 3 Yrotation Xrotation Zrotation
    JOINT RightToe
    {
     OFFSET 0.000000 -4.965400 11.033500
     CHANNELS 3 Yrotation Xrotation Zrotation
     End Site
     {
      OFFSET 0.000000 -1.423100 5.872300
     }
    }
   }
  }
 }
 JOINT LeftHip
 {
  OFFSET 7.771700 -0.012900 -0.001300
  CHANNELS 3 Yrotation Xrotation Zrotation
  JOINT LeftKnee
  {
   OFFSET 0.000000 -40.869800 0.001200
   CHANNELS 3 Yrotation Xrotation Zrotation
   JOINT LeftAnkle
   {
    OFFSET 0.000000 -39.717900 0.002100
    CHANNELS 3 Yrotation Xrotation Zrotation
    JOINT LeftToe
    {
     OFFSET 0.000000 -4.965400 11.033500
     CHANNELS 3 Yrotation Xrotation Zrotation
     End Site
     {
      OFFSET 0.000000 -1.423100 5.872300
     }
    }
   }
  }
 }
}
MOTION
Frames: 12
Frame Time: 0.008333
0.000000 85.388000 0.000000 0.000000 -5.767877 0.000000 0.000000 11.653817 0.000000 0.000000 -5.885947 0.000000 0.000000 -0.000000 0.000000 0.000000 -0.000000 0.000000 0.000000 12.528835 0.000000 0.000000 0.711642 0.000000 0.000000 -0.000000 0.000000 0.000000 0.000000 -90.000000 0.000000 -2.309062 0.000000 0.000000 2.309062 0.000000 0.000000 -0.000000 0.000000 0.000000 -0.000000 90.000000 0.000000 -2.309062 0.000000 0.000000 2.309062 0.000000 0.000000 8.520406 0.000000 0.000000 1.905762 0.000000 -0.000000 -4.658285 0.000000 0.000000 -0.000000 0.000000 0.000000 8.520406 0.000000 0.000000 1.905762 0.000000 -0.000000 -4.658285 0.000000 0.000000 -0.000000 0.000000
-150.941075 49.390808 19.220611 175.637693 -32.291619 -3.970779 0.111520 20.131839 2.397549 -0.001160 2.493992 0.240057 -0.022251 4.155199 0.376469 0.151990 17.254213 1.653231 5.151714 17.915268 -4.105511 10.807831 -1.944539 -9.222067 0.410465 -3.732673 -2.354046 5.988600 -9.102780 -12.706076 -40.136659 -44.803247 90.312288 4.208559 3.671174 -4.702138 -2.128154 -2.936955 0.633057 -4.690890 -1.998967 14.558870 78.343516 -63.605435 -116.539769 3.521388 10.705164 5.872054 -9.037961 -51.582434 -5.360419 -142.207006 82.246681 -128.622440 -30.361976 -4.006914 -5.040975 0.014323 -13.490725 -0.475666 -12.882793 -54.276344 19.374215 -74.572886 65.297630 -79.498878 30.810605 6.562274 16.482820 -0.012290 -0.563018 -0.004442
-150.945725 49.389392 19.218562 175.660483 -32.313865 -3.973894 0.103856 20.124220 2.400614 0.000340 2.484769 0.244158 -0.025865 4.158246 0.374665 0.142601 17.269234 1.652070 5.369649 18.071436 -4.112500 11.170902 -1.589941 -9.289931 0.407091 -3.750121 -2.326559 5.967737 -9.103003 -12.702744 -40.159381 -44.839177 90.312831 4.263833 3.697381 -4.648940 -2.119840 -2.961468 0.639534 -4.710717 -2.078915 14.588633 78.335486 -63.610878 -116.453424 3.427373 10.641698 5.677480 -9.016906 -51.563803 -5.398161 -142.224550 82.236767 -128.636382 -30.355399 -4.001670 -5.036655 0.008790 -13.493589 -0.468707 -12.874673 -54.263076 19.340576 -74.588318 65.299039 -79.514013 30.818862 6.563336 16.489921 -0.015502 -0.566383 -0.006635
-150.950749 49.388746 19.215451 175.683187 -32.348317 -3.977965 0.094648 20.130667 2.403854 -0.004975 2.498076 0.241407 -0.020626 4.138564 0.379587 0.134972 17.283088 1.650753 5.586741 18.239768 -4.114355 11.515926 -1.216596 -9.347016 0.412990 -3.766013 -2.302905 5.927279 -9.106295 -12.689287 -40.327092 -44.959220 90.384877 4.270509 3.819497 -4.539363 -2.098359 -2.993206 0.647177 -4.718479 -2.128897 14.611087 78.467873 -63.648209 -116.508026 3.287676 10.580083 5.432460 -9.001176 -51.535233 -5.431877 -142.274563 82.225514 -128.689672 -30.349508 -3.989629 -5.031089 0.000205 -13.503293 -0.460982 -12.863339 -54.233318 19.308739 -74.593963 65.297346 -79.518259 30.813268 6.566574 16.489132 -0.007349 -0.566951 -0.003679
-150.956908 49.386218 19.215757 175.687227 -32.364538 -3.969738 0.111449 20.094434 2.421132 -0.022987 2.534391 0.227275 0.007655 4.085478 0.402633 0.116565 17.311135 1.646588 5.780042 18.438115 -4.121388 11.838919 -0.826676 -9.392446 0.428936 -3.772232 -2.237808 5.856557 -9.092133 -12.721718 -40.456249 -45.069374 90.437627 4.318367 3.903415 -4.422041 -2.109574 -2.973620 0.634738 -4.694998 -2.203018 14.643377 78.705041 -63.709107 -116.660109 3.112679 10.515460 5.141260 -8.971777 -51.530710 -5.460749 -142.301264 82.216030 -128.720411 -30.348976 -3.976934 -5.025663 -0.003147 -13.507996 -0.456531 -12.838250 -54.223905 19.271171 -74.597174 65.302018 -79.515687 30.814024 6.566744 16.488814 -0.010386 -0.565980 -0.003263
-150.962087 49.383972 19.216821 175.696613 -32.381944 -3.972536 0.125487 20.073912 2.440946 -0.029243 2.540225 0.226556 0.013868 4.082663 0.403422 0.150692 17.275700 1.676182 5.930583 18.673002 -4.133148 12.139080 -0.425367 -9.426868 0.391111 -3.715679 -2.216405 5.786140 -9.114333 -12.714000 -40.571614 -45.175569 90.488312 4.394060 3.963903 -4.300533 -2.155278 -2.925254 0.611282 -4.652476 -2.286568 14.678362 78.999585 -63.780366 -116.869818 2.918848 10.448063 4.805766 -8.967700 -51.517099 -5.470406 -142.356690 82.217935 -128.782854 -30.348114 -3.978011 -5.019163 -0.005032 -13.501740 -0.456776 -12.825779 -54.211307 19.249018 -74.600340 65.302723 -79.512518 30.810897 6.566320 16.487251 -0.007266 -0.561482 -0.000759
-150.967885 49.382344 19.217896 175.704545 -32.405044 -3.971768 0.128706 20.082361 2.444818 0.005439 2.492762 0.246271 -0.013008 4.119499 0.390628 0.137496 17.290372 1.672300 6.131841 18.852233 -4.127875 12.417496 -0.020358 -9.453759 0.407288 -3.711437 -2.171638 5.702093 -9.143010 -12.705729 -40.707042 -45.294540 90.549424 4.467921 4.024106 -4.159218 -2.115623 -2.963495 0.621600 -4.621109 -2.349649 14.698828 79.338392 -63.859713 -117.132847 2.724277 10.383024 4.429388 -8.954711 -51.498250 -5.487322 -142.360305 82.221960 -128.794023 -30.348109 -3.967478 -5.020042 -0.010571 -13.500921 -0.449596 -12.802020 -54.193923 19.212549 -74.598787 65.305994 -79.500254 30.814011 6.570778 16.487759 -0.008371 -0.561078 -0.000858
-150.973967 49.381422 19.218920 175.723667 -32.433647 -3.975057 0.123622 20.098103 2.447557 0.020567 2.477764 0.253214 -0.009927 4.116815 0.393043 0.147661 17.282413 1.684911 6.290982 19.061050 -4.128616 12.678424 0.381013 -9.474906 0.393153 -3.675983 -2.134628 5.605106 -9.176299 -12.696541 -40.856827 -45.424131 90.618061 4.538717 4.078777 -3.995894 -2.139860 -2.941427 0.610436 -4.535758 -2.451065 14.736519 79.693687 -63.936690 -117.424393 2.546563 10.319525 4.022363 -8.941141 -51.474893 -5.510292 -142.356965 82.224450 -128.805999 -30.341850 -3.939120 -5.003634 -0.016098 -13.510110 -0.453131 -12.796278 -54.167325 19.186164 -74.586106 65.302814 -79.484127 30.806304 6.580270 16.481310 -0.000256 -0.560165 0.003448
-150.979645 49.378854 19.223531 175.729033 -32.443657 -3.973533 0.142495 20.080993 2.462984 0.024333 2.475005 0.254083 0.000788 4.106680 0.399016 0.191462 17.259185 1.713117 6.399327 19.288638 -4.132091 12.925225 0.773550 -9.489769 0.330663 -3.616241 -2.115049 5.504517 -9.213170 -12.671070 -41.021855 -45.563735 90.696623 4.611489 4.129060 -3.811422 -2.185021 -2.913394 0.588980 -4.451091 -2.542328 14.779432 80.038121 -63.998513 -117.712747 2.389817 10.264593 3.595510 -8.903033 -51.471518 -5.544818 -142.414599 82.226489 -128.853653 -30.334435 -3.928151 -4.995813 -0.024306 -13.509883 -0.457306 -12.789902 -54.158784 19.172521 -74.569927 65.297724 -79.465053 30.797548 6.584885 16.478002 0.010210 -0.552433 0.006029
-150.984783 49.377680 19.226568 175.739768 -32.469789 -3.974732 0.188057 20.047570 2.500197 -0.016074 2.517808 0.237064 0.018935 4.087375 0.407656 0.167089 17.284619 1.706091 6.576669 19.455346 -4.123826 13.156440 1.155597 -9.497822 0.326282 -3.607533 -2.104848 5.411131 -9.253481 -12.617116 -41.204958 -45.715576 90.784104 4.688831 4.181884 -3.603249 -2.113723 -2.937195 0.594255 -4.392081 -2.637946 14.812851 80.358282 -64.042673 -117.979669 2.249184 10.226967 3.158196 -8.892832 -51.448172 -5.561533 -142.430204 82.234259 -128.876147 -30.329789 -3.921310 -4.993832 -0.035247 -13.504975 -0.454753 -12.784257 -54.136827 19.151432 -74.564350 65.299507 -79.458886 30.792458 6.589809 16.476558 0.008925 -0.551091 0.006887
-150.990205 49.377048 19.228964 175.749940 -32.504210 -3.969883 0.206995 20.049137 2.512441 -0.031183 2.534137 0.230522 0.039052 4.065536 0.416817 0.177194 17.282116 1.716570 6.710407 19.644021 -4.117402 13.371701 1.528414 -9.498945 0.305679 -3.565504 -2.067147 5.299636 -9.296148 -12.595157 -41.403171 -45.882418 90.871762 4.775025 4.243248 -3.372316 -2.114684 -2.904132 0.592171 -4.281700 -2.762904 14.850129 80.654592 -64.075493 -118.218064 2.116193 10.207328 2.711327 -8.848557 -51.417075 -5.603805 -142.412342 82.238146 -128.851688 -30.333409 -3.911848 -4.995779 -0.035660 -13.500921 -0.447111 -12.767463 -54.108144 19.113556 -74.558338 65.305554 -79.452027 30.794190 6.597817 16.477300 0.006107 -0.554438 0.006470
-150.994659 49.372633 19.237558 175.765647 -32.498083 -3.971984 0.222164 20.009886 2.529928 -0.005932 2.505411 0.243543 0.017376 4.087737 0.408795 0.242860 17.228773 1.753966 6.779358 19.879024 -4.112286 13.569578 1.895230 -9.494036 0.230382 -3.465219 -2.045480 5.177239 -9.353860 -12.561652 -41.612149 -46.070654 90.951725 4.877429 4.318071 -3.126527 -2.170348 -2.815267 0.582844 -4.163940 -2.895558 14.881140 80.940883 -64.107178 -118.429374 1.983319 10.200814 2.241351 -8.787660 -51.432700 -5.641789 -142.339157 82.219340 -128.749806 -30.348716 -3.907151 -4.999364 -0.011105 -13.493008 -0.438898 -12.777682 -54.119908 19.091324 -74.527568 65.307363 -79.406212 30.804544 6.628563 16.474202 0.003344 -0.561011 0.001925
